<svg height="512" viewBox="0 0 60 60" width="512" xmlns="http://www.w3.org/2000/svg"><g id="Page-1" fill="none" fill-rule="evenodd"><g id="032---Beach-Ball" fill-rule="nonzero" transform="translate(0 -1)"><path id="Shape" d="m39.16 3.48c-3.68 3.17-11.87 11.23-14.96 22.6-.3978882-.0521943-.7987045-.0789154-1.2-.08-3.7578194.0018694-7.1189389 2.338306-8.43 5.86-7.64-3.67-10.64-8-11.81-10.83 5.40009952-14.72259285 21.5179404-22.4936947 36.4-17.55z" fill="#ffdc00"/><path id="Shape" d="m56.54 19.31c-2.9181738 2.5840934-6.0757549 4.8844732-9.43 6.87v.01c-4.8301144 2.850496-9.9788425 5.1227834-15.34 6.77-.851203-3.6419842-3.8634801-6.3796944-7.57-6.88 3.09-11.37 11.28-19.43 14.96-22.6 7.7662103 2.59005666 14.0778388 8.3387954 17.38 15.83z" fill="#ef314c"/><path id="Shape" d="m59 31c.0059008 5.3419297-1.4649261 10.5815341-4.25 15.14h-.01c-1.1717039.5690193-2.4280694.9439026-3.72 1.11-7.27 1.03-16.05-3.49-21.04-6.58 1.3087556-1.5995385 2.0226083-3.6032736 2.02-5.67-.0001353-.6864616-.0772845-1.3707411-.23-2.04 5.3611575-1.6472166 10.5098856-3.919504 15.34-6.77v-.01c2.5060282-1.4876336 4.9051891-3.1483341 7.18-4.97.75-.6 1.51-1.24 2.25-1.9 1.6308706 3.6809861 2.4690244 7.6639206 2.46 11.69z" fill="#02a9f4"/><path id="Shape" d="m54.74 46.14c-5.2670925 8.6164455-14.6412213 13.8680795-24.74 13.86-1.2575747.0027185-2.5138554-.0808108-3.76-.25-2.57-4.53-4.55-11.86-3.99-15.78.25.02.5.03.75.03 2.7102624.0014958 5.2758887-1.2225065 6.98-3.33 5.88 3.64 17.02 9.27 24.76 5.47z" fill="#ffdc00"/><path id="Shape" d="m26.24 59.75c-8.8076774-1.1398542-16.60445434-6.2602907-21.15-13.89 2.98.47 7.09-.14 11.84-4.22 1.4628645 1.3482337 3.3366208 2.1653605 5.32 2.32v.01c-.56 3.92 1.42 11.25 3.99 15.78z" fill="#ef314c"/><path id="Shape" d="m16.93 41.64c-4.75 4.08-8.86 4.69-11.84 4.22-4.46766637-7.5062642-5.32322174-16.6236203-2.33-24.83 1.17 2.83 4.17 7.16 11.81 10.83-1.2867793 3.4359041-.3521497 7.3090726 2.36 9.78z" fill="#02a9f4"/><path id="Shape" d="m56.54 19.31c-.74.66-1.5 1.3-2.25 1.9-.22-.65-.47-1.28-.75-1.9-4.3915425-10.04913734-14.1052678-16.73556038-25.06-17.25.51-.03 1.01-.06 1.52-.06 11.4976479-.00719693 21.9116554 6.78505888 26.54 17.31z" fill="#bb193b"/><path id="Shape" d="m54.74 46.14c-5.2670925 8.6164455-14.6412213 13.8680795-24.74 13.86-.51 0-1.01-.02-1.52-.05 9.0902636-.4607331 17.4365798-5.1634047 22.54-12.7 1.2919306-.1660974 2.5482961-.5409807 3.72-1.11z" fill="#fec108"/><path id="Shape" d="m59 31c.0059008 5.3419297-1.4649261 10.5815341-4.25 15.14h-.01c-1.1717039.5690193-2.4280694.9439026-3.72 1.11.25-.36.49-.73.72-1.11h.01c2.7850739-4.5584659 4.2559008-9.7980703 4.25-15.14.0101634-3.3385017-.5687073-6.6526209-1.71-9.79.75-.6 1.51-1.24 2.25-1.9 1.6308706 3.6809861 2.4690244 7.6639206 2.46 11.69z" fill="#0377bc"/><path id="Shape" d="m32 35c-.0099032 4.9664549-4.0335451 8.9900968-9 9-.25 0-.5-.01-.75-.03v-.01c-1.9833792-.1546395-3.8571355-.9717663-5.32-2.32-2.7386212-2.5057517-3.6579098-6.4358211-2.3148638-9.8963218s4.6728788-5.7414546 8.3848638-5.7436782c.4012955.0010846.8021118.0278057 1.2.08 3.7065199.5003056 6.718797 3.2380158 7.57 6.88.1527155.6692589.2298647 1.3535384.23 2.04z" fill="#f5f5f5"/><path id="Shape" d="m31.77 32.96c-.851203-3.6419842-3.8634801-6.3796944-7.57-6.88-.3978882-.0521943-.7987045-.0789154-1.2-.08-.516286.0010338-1.0315235.0465353-1.54.136 3.5924593.5870693 6.4775544 3.2803509 7.31 6.824.1527155.6692589.2298647 1.3535384.23 2.04-.0063387 4.3956374-3.186954 8.1436309-7.523 8.865.254.042.512.075.773.095v.01c.25.02.5.03.75.03 4.9664549-.0099032 8.9900968-4.0335451 9-9-.0001353-.6864616-.0772845-1.3707411-.23-2.04z" fill="#cfd8dc"/><path id="Shape" d="m18.782 7.546c-5.0498674 2.43979242-9.18757559 6.4299881-11.809 11.388-.25094602.4879447-.06184801 1.0869625.42376584 1.3423899.48561384.2554274 1.08634704.0718519 1.34623416-.4113899 2.4204661-4.5786247 6.241513-8.2633683 10.905-10.516.4679516-.25476491.6539723-.83168984.4229765-1.31181979-.2309959-.48012994-.7978746-.69482661-1.2889765-.48818021z" fill="#f5f5f5"/><circle id="Oval" cx="23" cy="7" fill="#f5f5f5" r="1"/><path id="Shape" d="m57.465 18.949c-3.4036871-7.7092528-9.8784169-13.64221579-17.855-16.361-.014-.007-.029-.008-.043-.015-15.3845227-5.19026501-32.10482154 2.8112186-37.714 18.048-.00903033.0199127-.0170407.0402724-.024.061-3.1047593 8.4746553-2.22306052 17.8974437 2.4 25.649.02280928.050122.05026248.0979977.082.143 5.38698887 8.9559988 15.0495939 14.4598018 25.5006845 14.5251454 10.4510906.0653435 20.1817606-5.3172065 25.6803155-14.2051454.0634922-.0726509.1160456-.154176.156-.242 5.0660399-8.335502 5.7530132-18.6165925 1.841-27.552-.006-.015-.017-.032-.024-.051zm-27.465-15.949c2.4169493-.00059736 4.8237427.31268915 7.16.932-3.912 3.629-10.715 11.076-13.683 21.092-.159-.007-.316-.024-.477-.024-3.771347.0053895-7.218896 2.132074-8.916 5.5-6.3-3.233-9.048-6.85-10.237-9.48 4.14750867-10.840876 14.5458379-18.00555666 26.153-18.02zm1 32c0 4.418278-3.581722 8-8 8s-8-3.581722-8-8 3.581722-8 8-8c4.4162219.0049599 7.9950401 3.5837781 8 8zm-28.01-11.366c1.677 2.689 4.753 5.89 10.372 8.737-.8944424 3.2133749-.1081785 6.6611286 2.091 9.169-3.3 2.593-6.566 3.729-9.735 3.375-3.70953346-6.4464875-4.69156646-14.1072809-2.728-21.281zm4.042 23.352c2.633-.051 6.062-.963 9.9-4.053 1.2434044.955911 2.6952467 1.6042201 4.237 1.892-.182 3.865 1.36 9.524 3.276 13.62-7.06057-1.441636-13.2956991-5.544797-17.413-11.459zm22.968 12.014c-1.0438549-.0014211-2.0868145-.0611809-3.124-.179-2.248-4.174-3.851-10.217-3.708-13.829 2.6437083-.0432513 5.1618484-1.1354046 7-3.036 4.692 2.825 12 6.443 18.684 6.443 1.1178434.003426 2.232957-.1105321 3.327-.34-5.2908637 6.8957004-13.4873995 10.9390882-22.179 10.941zm24.031-13.649c-6.918 3.157-16.764-1.487-22.611-4.978 1.0311751-1.602355 1.5796502-3.4675175 1.58-5.373-.0023694-.4557439-.0357801-.9107972-.1-1.362 3.9869999-1.2730205 7.8572361-2.8862881 11.568-4.822.3165373-.1657712.520592-.4878208.5352985-.8448358.0147066-.357015-.1621692-.6947563-.464-.886-.3018307-.1912437-.6827612-.2069354-.9992985-.0411642-3.5659498 1.8595743-7.2832899 3.4131494-11.112 4.644-1.1119957-3.1460182-3.716819-5.5322732-6.948-6.365 3.114-10.209 10.409-17.617 13.9-20.7 7.0086774 2.51098288 12.7374758 7.6957738 15.933 14.42-2.1592091 1.869553-4.4493868 3.582257-6.853 5.125-.4650238.2982338-.6002338.9169762-.302 1.382s.9169762.6002338 1.382.302c2.3050267-1.4799695 4.509822-3.1105159 6.6-4.881 3.0864241 8.0177382 2.3100254 17.0099464-2.105 24.38z" fill="#000"/></g></g></svg>